<svg width="109" height="109" viewBox="0 0 109 109" fill="none" xmlns="http://www.w3.org/2000/svg">
<g filter="url(#filter0_d_1_70)">
<circle cx="54.5" cy="50.5" r="46.5" fill="url(#paint0_linear_1_70)" shape-rendering="crispEdges"/>
<circle cx="54.5" cy="50.5" r="45.5" stroke="#BFB5EE" stroke-width="2" shape-rendering="crispEdges"/>
</g>
<path d="M40.79 26.116C45.675 22.9573 52.1986 24.3823 55.3222 29.2898L70.6689 53.4041C70.6709 53.4072 70.6727 53.4106 70.6747 53.4138C70.6859 53.4318 70.6959 53.4507 70.706 53.4695C70.7114 53.4796 70.7175 53.4895 70.7226 53.4998C70.7322 53.5194 70.7405 53.5399 70.7489 53.5603C70.7529 53.5698 70.758 53.579 70.7616 53.5886C70.7802 53.6379 70.7929 53.6899 70.8036 53.7429C70.807 53.7597 70.8109 53.7768 70.8134 53.7937C70.8141 53.7981 70.8157 53.8029 70.8163 53.8074V53.8083C70.8164 53.8092 70.817 53.8108 70.8173 53.8123C70.8178 53.8158 70.8183 53.822 70.8193 53.8289C70.8212 53.843 70.8244 53.8644 70.828 53.8914C70.8354 53.9461 70.8465 54.0268 70.8603 54.1287C70.888 54.3336 70.928 54.6275 70.9755 54.9773C71.0706 55.6768 71.1975 56.6055 71.3241 57.5232C71.4509 58.4419 71.5771 59.348 71.6718 60.0017C71.6753 60.0261 71.6791 60.0504 71.6825 60.074L71.7216 60.0515C71.7398 60.1282 76.2773 79.2496 73.3144 78.4099C70.5918 77.6366 60.2011 69.3703 58.4862 67.9968C58.1065 67.7591 57.672 67.4862 57.2275 67.2107C56.5031 66.7618 55.7565 66.3016 55.1913 65.9539C54.9089 65.7801 54.6713 65.6333 54.5048 65.531C54.4219 65.4801 54.3561 65.4393 54.3114 65.4119L54.248 65.3728C54.2467 65.372 54.2449 65.3713 54.2441 65.3708H54.2431C54.235 65.3659 54.2275 65.3594 54.2196 65.3542C54.2138 65.3505 54.2078 65.3465 54.2021 65.3425C54.0928 65.2679 54.0019 65.1757 53.9325 65.071L37.7519 40.7156C34.5213 35.8525 35.8876 29.2865 40.79 26.116ZM61.7978 68.0681C62.9239 68.9502 64.3592 70.0616 65.8661 71.1912C67.5518 72.4546 69.3085 73.7286 70.8153 74.7322C71.3615 75.0959 71.8653 75.4183 72.3124 75.6873C72.2803 74.184 72.0221 72.0902 71.6581 69.8699C71.2805 67.5662 70.8103 65.2259 70.4325 63.4558C70.4097 63.3487 70.3843 63.2441 70.3622 63.1414L61.7978 68.0681ZM38.9257 38.7625C39.0724 39.0498 39.235 39.3329 39.4179 39.6082L55.4755 63.78C55.4989 63.7944 55.5243 63.8101 55.5517 63.8269C55.7186 63.9294 55.9562 64.0756 56.2392 64.2498C56.8053 64.5981 57.5541 65.059 58.2812 65.5095C58.9946 65.9516 59.6921 66.3855 60.1767 66.6931L69.8222 61.1433C69.8183 61.1197 69.8134 61.0955 69.8095 61.071C69.7804 60.89 69.739 60.6177 69.6913 60.2888C69.5956 59.6281 69.4686 58.7161 69.3417 57.7966C69.2148 56.8769 69.0882 55.9461 68.9931 55.2458C68.9455 54.8958 68.9056 54.6024 68.8778 54.3972C68.8727 54.3591 68.8686 54.3236 68.8642 54.2917L53.6347 30.363C53.6247 30.3474 53.6135 30.3327 53.6034 30.3171L38.9257 38.7625ZM69.8427 61.0554C69.8404 61.0863 69.8408 61.1105 69.8407 61.1208C69.8408 61.0919 69.8422 61.0632 69.8446 61.0349C69.8436 61.0454 69.8429 61.0526 69.8427 61.0554ZM52.3085 28.7546C49.536 26.1286 45.2291 25.6273 41.8759 27.7957C38.781 29.7973 37.4283 33.4711 38.2245 36.8582L52.3085 28.7546Z" fill="#423E52"/>
<path d="M41.4434 24.6805C46.3284 21.5221 52.8522 22.9468 55.9756 27.8543L71.3213 51.9686C71.3551 52.0215 71.3837 52.0781 71.4073 52.1375C71.4093 52.1427 71.4121 52.1479 71.4141 52.1532C71.4207 52.1707 71.4261 52.1889 71.4317 52.2069C71.4374 52.225 71.4436 52.2432 71.4483 52.2616C71.4511 52.273 71.4527 52.2851 71.4551 52.2967C71.4595 52.3171 71.4628 52.3378 71.4659 52.3582C71.4665 52.3627 71.4681 52.3675 71.4688 52.3719V52.3729C71.4689 52.3737 71.4695 52.3753 71.4698 52.3768C71.4702 52.3803 71.4708 52.3865 71.4717 52.3934C71.4736 52.4075 71.4769 52.4289 71.4805 52.4559C71.4879 52.5107 71.4989 52.5921 71.5127 52.6942C71.5404 52.899 71.5805 53.1924 71.628 53.5418C71.723 54.2413 71.8499 55.17 71.9766 56.0877C72.1034 57.0064 72.2296 57.9125 72.3243 58.5662C72.3278 58.5906 72.3316 58.6149 72.335 58.6385L72.3741 58.6161C72.3899 58.683 76.9313 77.8141 73.9678 76.9744C71.2456 76.2017 60.8526 67.9341 59.1387 66.5614C58.759 66.3236 58.3244 66.0507 57.8799 65.7752C57.1556 65.3264 56.4089 64.8661 55.8438 64.5184C55.5615 64.3447 55.3237 64.1978 55.1573 64.0955C55.0745 64.0447 55.0085 64.0038 54.9639 63.9764L54.9004 63.9373C54.8992 63.9366 54.8973 63.9358 54.8965 63.9354H54.8955C54.7486 63.8452 54.6323 63.7234 54.5518 63.5838L38.4043 39.2801C35.1739 34.4171 36.541 27.851 41.4434 24.6805ZM62.4522 66.6327C63.5782 67.5147 65.0119 68.6264 66.5186 69.7557C68.2041 71.0191 69.961 72.2932 71.4678 73.2967C72.014 73.6605 72.5178 73.9829 72.9649 74.2518C72.9327 72.7485 72.6755 70.6547 72.3116 68.4344C71.9339 66.1307 71.4628 63.7905 71.085 62.0203C71.0621 61.9132 71.0368 61.8086 71.0147 61.7059L62.4522 66.6327ZM39.5791 37.328C39.7259 37.6153 39.8885 37.8984 40.0713 38.1737L56.128 62.3446C56.1514 62.359 56.1768 62.3747 56.2041 62.3914C56.371 62.4939 56.6088 62.6403 56.8916 62.8143C57.4577 63.1626 58.2067 63.6236 58.9336 64.0741C59.6469 64.5161 60.3446 64.95 60.8291 65.2577L70.4746 59.7078C70.4708 59.6843 70.4659 59.6601 70.4619 59.6356C70.4329 59.4545 70.3914 59.1822 70.3438 58.8534C70.2481 58.1926 70.1211 57.2806 69.9942 56.3612C69.8672 55.4414 69.7407 54.5106 69.6455 53.8104C69.598 53.4604 69.559 53.1669 69.5313 52.9618C69.5261 52.9236 69.5211 52.8882 69.5166 52.8563L54.2881 28.9276C54.2782 28.912 54.2669 28.8972 54.2569 28.8817L39.5791 37.328ZM70.4951 59.62C70.4929 59.6508 70.4932 59.675 70.4932 59.6854C70.4933 59.6564 70.4946 59.6278 70.4971 59.5994C70.4961 59.61 70.4954 59.6171 70.4951 59.62ZM52.9619 27.3192C50.1892 24.6931 45.8816 24.1918 42.5284 26.3602C39.4336 28.3617 38.0818 32.0356 38.878 35.4227L52.9619 27.3192Z" fill="#AB98FF"/>
<defs>
<filter id="filter0_d_1_70" x="0" y="0" width="109" height="109" filterUnits="userSpaceOnUse" color-interpolation-filters="sRGB">
<feFlood flood-opacity="0" result="BackgroundImageFix"/>
<feColorMatrix in="SourceAlpha" type="matrix" values="0 0 0 0 0 0 0 0 0 0 0 0 0 0 0 0 0 0 127 0" result="hardAlpha"/>
<feOffset dy="4"/>
<feGaussianBlur stdDeviation="4"/>
<feComposite in2="hardAlpha" operator="out"/>
<feColorMatrix type="matrix" values="0 0 0 0 0 0 0 0 0 0 0 0 0 0 0 0 0 0 0.25 0"/>
<feBlend mode="normal" in2="BackgroundImageFix" result="effect1_dropShadow_1_70"/>
<feBlend mode="normal" in="SourceGraphic" in2="effect1_dropShadow_1_70" result="shape"/>
</filter>
<linearGradient id="paint0_linear_1_70" x1="54.5" y1="4" x2="54.5" y2="97" gradientUnits="userSpaceOnUse">
<stop stop-color="#563CC8"/>
<stop offset="1" stop-color="#563CC8" stop-opacity="0.8"/>
</linearGradient>
</defs>
</svg>
